<svg id="my-svg" width="737" height="749" xmlns="http://www.w3.org/2000/svg" xmlns:xlink="http://www.w3.org/1999/xlink" class="flowchart" style="max-width: 737px; background-color: transparent;" viewBox="0 0 737.828125 749.8111572265625" role="graphics-document document" aria-roledescription="flowchart-v2"><style>#my-svg{font-family:"trebuchet ms",verdana,arial,sans-serif;font-size:16px;fill:#1a1a1a;}@keyframes edge-animation-frame{from{stroke-dashoffset:0;}}@keyframes dash{to{stroke-dashoffset:0;}}#my-svg .edge-animation-slow{stroke-dasharray:9,5!important;stroke-dashoffset:900;animation:dash 50s linear infinite;stroke-linecap:round;}#my-svg .edge-animation-fast{stroke-dasharray:9,5!important;stroke-dashoffset:900;animation:dash 20s linear infinite;stroke-linecap:round;}#my-svg .error-icon{fill:#e8f5e9;}#my-svg .error-text{fill:#170a16;stroke:#170a16;}#my-svg .edge-thickness-normal{stroke-width:1px;}#my-svg .edge-thickness-thick{stroke-width:3.5px;}#my-svg .edge-pattern-solid{stroke-dasharray:0;}#my-svg .edge-thickness-invisible{stroke-width:0;fill:none;}#my-svg .edge-pattern-dashed{stroke-dasharray:3;}#my-svg .edge-pattern-dotted{stroke-dasharray:2;}#my-svg .marker{fill:#546e7a;stroke:#546e7a;}#my-svg .marker.cross{stroke:#546e7a;}#my-svg svg{font-family:"trebuchet ms",verdana,arial,sans-serif;font-size:16px;}#my-svg p{margin:0;}#my-svg .label{font-family:"trebuchet ms",verdana,arial,sans-serif;color:#1a1a1a;}#my-svg .cluster-label text{fill:#1a1a1a;}#my-svg .cluster-label span{color:#1a1a1a;}#my-svg .cluster-label span p{background-color:transparent;}#my-svg .label text,#my-svg span{fill:#1a1a1a;color:#1a1a1a;}#my-svg .node rect,#my-svg .node circle,#my-svg .node ellipse,#my-svg .node polygon,#my-svg .node path{fill:#e3f2fd;stroke:#90caf9;stroke-width:1px;}#my-svg .rough-node .label text,#my-svg .node .label text,#my-svg .image-shape .label,#my-svg .icon-shape .label{text-anchor:middle;}#my-svg .node .katex path{fill:#000;stroke:#000;stroke-width:1px;}#my-svg .rough-node .label,#my-svg .node .label,#my-svg .image-shape .label,#my-svg .icon-shape .label{text-align:center;}#my-svg .node.clickable{cursor:pointer;}#my-svg .root .anchor path{fill:#546e7a!important;stroke-width:0;stroke:#546e7a;}#my-svg .arrowheadPath{fill:#0b0b0b;}#my-svg .edgePath .path{stroke:#546e7a;stroke-width:1px;}#my-svg .flowchart-link{stroke:#546e7a;fill:none;}#my-svg .edgeLabel{background-color:#ffffff;text-align:center;}#my-svg .edgeLabel p{background-color:#ffffff;}#my-svg .edgeLabel rect{opacity:0.5;background-color:#ffffff;fill:#ffffff;}#my-svg .labelBkg{background-color:rgba(255, 255, 255, 0.5);}#my-svg .cluster rect{fill:#f5f5f5;stroke:#bdbdbd;stroke-width:1px;}#my-svg .cluster text{fill:#1a1a1a;}#my-svg .cluster span{color:#1a1a1a;}#my-svg div.mermaidTooltip{position:absolute;text-align:center;max-width:200px;padding:2px;font-family:"trebuchet ms",verdana,arial,sans-serif;font-size:12px;background:#e8f5e9;border:1px solid hsl(124.6153846154, 0%, 83.5294117647%);border-radius:2px;pointer-events:none;z-index:100;}#my-svg .flowchartTitleText{text-anchor:middle;font-size:18px;fill:#1a1a1a;}#my-svg rect.text{fill:none;stroke-width:0;}#my-svg .icon-shape,#my-svg .image-shape{background-color:#ffffff;text-align:center;}#my-svg .icon-shape p,#my-svg .image-shape p{background-color:#ffffff;padding:2px;}#my-svg .icon-shape .label rect,#my-svg .image-shape .label rect{opacity:0.5;background-color:#ffffff;fill:#ffffff;}#my-svg .label-icon{display:inline-block;height:1em;overflow:visible;vertical-align:-0.125em;}#my-svg .node .label-icon path{fill:currentColor;stroke:revert;stroke-width:revert;}#my-svg .node .neo-node{stroke:#90caf9;}#my-svg [data-look="neo"].node rect,#my-svg [data-look="neo"].cluster rect,#my-svg [data-look="neo"].node polygon{stroke:url(#my-svg-gradient);filter:drop-shadow( 1px 2px 2px rgba(185,185,185,1));}#my-svg [data-look="neo"].node path{stroke:url(#my-svg-gradient);stroke-width:1px;}#my-svg [data-look="neo"].node .outer-path{filter:drop-shadow( 1px 2px 2px rgba(185,185,185,1));}#my-svg [data-look="neo"].node .neo-line path{stroke:#90caf9;filter:none;}#my-svg [data-look="neo"].node circle{stroke:url(#my-svg-gradient);filter:drop-shadow( 1px 2px 2px rgba(185,185,185,1));}#my-svg [data-look="neo"].node circle .state-start{fill:#000000;}#my-svg [data-look="neo"].icon-shape .icon{fill:url(#my-svg-gradient);filter:drop-shadow( 1px 2px 2px rgba(185,185,185,1));}#my-svg [data-look="neo"].icon-shape .icon-neo path{stroke:url(#my-svg-gradient);filter:drop-shadow( 1px 2px 2px rgba(185,185,185,1));}#my-svg :root{--mermaid-font-family:"trebuchet ms",verdana,arial,sans-serif;}</style><g><marker id="my-svg_flowchart-v2-pointEnd" class="marker flowchart-v2" viewBox="0 0 10 10" refX="5" refY="5" markerUnits="userSpaceOnUse" markerWidth="8" markerHeight="8" orient="auto"><path d="M 0 0 L 10 5 L 0 10 z" class="arrowMarkerPath" style="stroke-width: 1; stroke-dasharray: 1, 0;"/></marker><marker id="my-svg_flowchart-v2-pointStart" class="marker flowchart-v2" viewBox="0 0 10 10" refX="4.5" refY="5" markerUnits="userSpaceOnUse" markerWidth="8" markerHeight="8" orient="auto"><path d="M 0 5 L 10 10 L 10 0 z" class="arrowMarkerPath" style="stroke-width: 1; stroke-dasharray: 1, 0;"/></marker><marker id="my-svg_flowchart-v2-pointEnd-margin" class="marker flowchart-v2" viewBox="0 0 11.5 14" refX="11.5" refY="7" markerUnits="userSpaceOnUse" markerWidth="10.5" markerHeight="14" orient="auto"><path d="M 0 0 L 11.5 7 L 0 14 z" class="arrowMarkerPath" style="stroke-width: 0; stroke-dasharray: 1, 0;"/></marker><marker id="my-svg_flowchart-v2-pointStart-margin" class="marker flowchart-v2" viewBox="0 0 11.5 14" refX="1" refY="7" markerUnits="userSpaceOnUse" markerWidth="11.5" markerHeight="14" orient="auto"><polygon points="0,7 11.5,14 11.5,0" class="arrowMarkerPath" style="stroke-width: 0; stroke-dasharray: 1, 0;"/></marker><marker id="my-svg_flowchart-v2-circleEnd" class="marker flowchart-v2" viewBox="0 0 10 10" refX="11" refY="5" markerUnits="userSpaceOnUse" markerWidth="11" markerHeight="11" orient="auto"><circle cx="5" cy="5" r="5" class="arrowMarkerPath" style="stroke-width: 1; stroke-dasharray: 1, 0;"/></marker><marker id="my-svg_flowchart-v2-circleStart" class="marker flowchart-v2" viewBox="0 0 10 10" refX="-1" refY="5" markerUnits="userSpaceOnUse" markerWidth="11" markerHeight="11" orient="auto"><circle cx="5" cy="5" r="5" class="arrowMarkerPath" style="stroke-width: 1; stroke-dasharray: 1, 0;"/></marker><marker id="my-svg_flowchart-v2-circleEnd-margin" class="marker flowchart-v2" viewBox="0 0 10 10" refY="5" refX="12.25" markerUnits="userSpaceOnUse" markerWidth="14" markerHeight="14" orient="auto"><circle cx="5" cy="5" r="5" class="arrowMarkerPath" style="stroke-width: 0; stroke-dasharray: 1, 0;"/></marker><marker id="my-svg_flowchart-v2-circleStart-margin" class="marker flowchart-v2" viewBox="0 0 10 10" refX="-2" refY="5" markerUnits="userSpaceOnUse" markerWidth="14" markerHeight="14" orient="auto"><circle cx="5" cy="5" r="5" class="arrowMarkerPath" style="stroke-width: 0; stroke-dasharray: 1, 0;"/></marker><marker id="my-svg_flowchart-v2-crossEnd" class="marker cross flowchart-v2" viewBox="0 0 11 11" refX="12" refY="5.2" markerUnits="userSpaceOnUse" markerWidth="11" markerHeight="11" orient="auto"><path d="M 1,1 l 9,9 M 10,1 l -9,9" class="arrowMarkerPath" style="stroke-width: 2; stroke-dasharray: 1, 0;"/></marker><marker id="my-svg_flowchart-v2-crossStart" class="marker cross flowchart-v2" viewBox="0 0 11 11" refX="-1" refY="5.2" markerUnits="userSpaceOnUse" markerWidth="11" markerHeight="11" orient="auto"><path d="M 1,1 l 9,9 M 10,1 l -9,9" class="arrowMarkerPath" style="stroke-width: 2; stroke-dasharray: 1, 0;"/></marker><marker id="my-svg_flowchart-v2-crossEnd-margin" class="marker cross flowchart-v2" viewBox="0 0 15 15" refX="17.7" refY="7.5" markerUnits="userSpaceOnUse" markerWidth="12" markerHeight="12" orient="auto"><path d="M 1,1 L 14,14 M 1,14 L 14,1" class="arrowMarkerPath" style="stroke-width: 2.5;"/></marker><marker id="my-svg_flowchart-v2-crossStart-margin" class="marker cross flowchart-v2" viewBox="0 0 15 15" refX="-3.5" refY="7.5" markerUnits="userSpaceOnUse" markerWidth="12" markerHeight="12" orient="auto"><path d="M 1,1 L 14,14 M 1,14 L 14,1" class="arrowMarkerPath" style="stroke-width: 2.5; stroke-dasharray: 1, 0;"/></marker><g class="root"><g class="clusters"/><g class="edgePaths"><path d="M111.859,47.5L111.776,51.583C111.693,55.667,111.526,63.833,111.443,78.688C111.359,93.542,111.359,115.084,111.359,136.626C111.359,158.168,111.359,179.71,111.359,197.897C111.359,216.085,111.359,230.918,111.359,245.752C111.359,260.585,111.359,275.418,111.43,286.418C111.5,297.419,111.64,304.585,111.711,308.169L111.781,311.752" id="my-svg-L_gatk_gatk_bam_0" class="edge-thickness-normal edge-pattern-solid edge-thickness-normal edge-pattern-solid flowchart-link" style=";" data-edge="true" data-et="edge" data-id="L_gatk_gatk_bam_0" data-points="W3sieCI6MTExLjg1OTM3NSwieSI6NDcuNX0seyJ4IjoxMTEuMzU5Mzc1LCJ5Ijo3Mn0seyJ4IjoxMTEuMzU5Mzc1LCJ5IjoxMzYuNjI1ODIwMTU5OTEyMX0seyJ4IjoxMTEuMzU5Mzc1LCJ5IjoyMDEuMjUxNjQwMzE5ODI0MjJ9LHsieCI6MTExLjM1OTM3NSwieSI6MjQ1Ljc1MTY0MDMxOTgyNDIyfSx7IngiOjExMS4zNTkzNzUsInkiOjI5MC4yNTE2NDAzMTk4MjQyfSx7IngiOjExMS44NTkzNzUsInkiOjMxNS43NTE2NDAzMTk4MjQyfV0=" data-look="classic" marker-end="url(#my-svg_flowchart-v2-pointEnd)"/><path d="M144.348,47.5L151.207,51.583C158.065,55.667,171.783,63.833,178.717,74.854C185.652,85.875,185.804,99.751,185.88,106.688L185.956,113.626" id="my-svg-L_gatk_gatk_vcf_0" class="edge-thickness-normal edge-pattern-solid edge-thickness-normal edge-pattern-solid flowchart-link" style=";" data-edge="true" data-et="edge" data-id="L_gatk_gatk_vcf_0" data-points="W3sieCI6MTQ0LjM0Nzk2MzQ4MzE0NjA2LCJ5Ijo0Ny41fSx7IngiOjE4NS41LCJ5Ijo3Mn0seyJ4IjoxODYsInkiOjExNy42MjU4MjAxNTk5MTIxMX1d" data-look="classic" marker-end="url(#my-svg_flowchart-v2-pointEnd)"/><path d="M207.272,156.626L215.394,164.063C223.515,171.501,239.757,186.376,269.411,197.939C299.065,209.501,342.13,217.75,363.663,221.875L385.195,225.999" id="my-svg-L_gatk_vcf_compute_vcf_features_0" class="edge-thickness-normal edge-pattern-solid edge-thickness-normal edge-pattern-solid flowchart-link" style=";" data-edge="true" data-et="edge" data-id="L_gatk_vcf_compute_vcf_features_0" data-points="W3sieCI6MjA3LjI3MjQ1NzMwMjY0Mjc1LCJ5IjoxNTYuNjI1ODIwMTU5OTEyMX0seyJ4IjoyNTYsInkiOjIwMS4yNTE2NDAzMTk4MjQyMn0seyJ4IjozODkuMTIzNzcxMDY3NDE1NywieSI6MjI2Ljc1MTY0MDMxOTgyNDIyfV0=" data-look="classic" marker-end="url(#my-svg_flowchart-v2-pointEnd)"/><path d="M378.49,173.69L382.964,178.283C387.438,182.877,396.387,192.064,408.474,200.601C420.561,209.138,435.786,217.025,443.399,220.968L451.011,224.912" id="my-svg-L_genome_compute_vcf_features_0" class="edge-thickness-normal edge-pattern-solid edge-thickness-normal edge-pattern-solid flowchart-link" style=";" data-edge="true" data-et="edge" data-id="L_genome_compute_vcf_features_0" data-points="W3sieCI6Mzc4LjQ4OTY4NzI5ODM0NzQ2LCJ5IjoxNzMuNjg5NTIzNzA4NjMxNTV9LHsieCI6NDA1LjMzNTkzNzUsInkiOjIwMS4yNTE2NDAzMTk4MjQyMn0seyJ4Ijo0NTQuNTYzMTE0NDY2MjkyMSwieSI6MjI2Ljc1MTY0MDMxOTgyNDIyfV0=" data-look="classic" marker-end="url(#my-svg_flowchart-v2-pointEnd)"/><path d="M509.406,172.985L509.406,177.696C509.406,182.407,509.406,191.829,508.093,200.164C506.781,208.498,504.155,215.744,502.842,219.368L501.53,222.991" id="my-svg-L_hc_bed_compute_vcf_features_0" class="edge-thickness-normal edge-pattern-solid edge-thickness-normal edge-pattern-solid flowchart-link" style=";" data-edge="true" data-et="edge" data-id="L_hc_bed_compute_vcf_features_0" data-points="W3sieCI6NTA5LjQwNjI1LCJ5IjoxNzIuOTg0OTQzMzg5ODkyNTh9LHsieCI6NTA5LjQwNjI1LCJ5IjoyMDEuMjUxNjQwMzE5ODI0MjJ9LHsieCI6NTAwLjE2Njk1OTI2OTY2MjksInkiOjIyNi43NTE2NDAzMTk4MjQyMn1d" data-look="classic" marker-end="url(#my-svg_flowchart-v2-pointEnd)"/><path d="M661.688,173.01L661.688,177.717C661.688,182.424,661.688,191.838,646.533,200.622C631.378,209.405,601.069,217.559,585.914,221.636L570.76,225.713" id="my-svg-L_popaf_vcf_compute_vcf_features_0" class="edge-thickness-normal edge-pattern-solid edge-thickness-normal edge-pattern-solid flowchart-link" style=";" data-edge="true" data-et="edge" data-id="L_popaf_vcf_compute_vcf_features_0" data-points="W3sieCI6NjYxLjY4NzUsInkiOjE3My4wMTA0NjM3MTQ1OTk2fSx7IngiOjY2MS42ODc1LCJ5IjoyMDEuMjUxNjQwMzE5ODI0MjJ9LHsieCI6NTY2Ljg5Njk0NTIyNDcxOSwieSI6MjI2Ljc1MTY0MDMxOTgyNDIyfV0=" data-look="classic" marker-end="url(#my-svg_flowchart-v2-pointEnd)"/><path d="M505.032,265.752L507.611,269.835C510.19,273.918,515.349,282.085,517.928,293.585C520.508,305.085,520.508,319.918,520.508,334.752C520.508,349.585,520.508,364.418,520.508,379.252C520.508,394.085,520.508,408.918,520.508,423.752C520.508,438.585,520.508,453.418,520.583,467.048C520.658,480.678,520.809,493.105,520.884,499.318L520.959,505.532" id="my-svg-L_compute_vcf_features_vcf_feat_0" class="edge-thickness-normal edge-pattern-solid edge-thickness-normal edge-pattern-solid flowchart-link" style=";" data-edge="true" data-et="edge" data-id="L_compute_vcf_features_vcf_feat_0" data-points="W3sieCI6NTA1LjAzMTY4ODkwNDQ5NDQsInkiOjI2NS43NTE2NDAzMTk4MjQyfSx7IngiOjUyMC41MDc4MTI1LCJ5IjoyOTAuMjUxNjQwMzE5ODI0Mn0seyJ4Ijo1MjAuNTA3ODEyNSwieSI6MzM0Ljc1MTY0MDMxOTgyNDJ9LHsieCI6NTIwLjUwNzgxMjUsInkiOjM3OS4yNTE2NDAzMTk4MjQyfSx7IngiOjUyMC41MDc4MTI1LCJ5Ijo0MjMuNzUxNjQwMzE5ODI0Mn0seyJ4Ijo1MjAuNTA3ODEyNSwieSI6NDY4LjI1MTY0MDMxOTgyNDJ9LHsieCI6NTIxLjAwNzgxMjUsInkiOjUwOS41MzEzOTQ5NTg0OTYwNH1d" data-look="classic" marker-end="url(#my-svg_flowchart-v2-pointEnd)"/><path d="M406.599,265.752L388.145,269.835C369.692,273.918,332.786,282.085,314.402,289.752C296.019,297.419,296.16,304.585,296.23,308.169L296.3,311.752" id="my-svg-L_compute_vcf_features_vcf_bed_0" class="edge-thickness-normal edge-pattern-solid edge-thickness-normal edge-pattern-solid flowchart-link" style=";" data-edge="true" data-et="edge" data-id="L_compute_vcf_features_vcf_bed_0" data-points="W3sieCI6NDA2LjU5ODc5NzQwMTY4NTQsInkiOjI2NS43NTE2NDAzMTk4MjQyfSx7IngiOjI5NS44Nzg5MDYyNSwieSI6MjkwLjI1MTY0MDMxOTgyNDJ9LHsieCI6Mjk2LjM3ODkwNjI1LCJ5IjozMTUuNzUxNjQwMzE5ODI0Mn1d" data-look="classic" marker-end="url(#my-svg_flowchart-v2-pointEnd)"/><path d="M111.859,354.752L111.776,358.835C111.693,362.918,111.526,371.085,114.736,378.917C117.946,386.75,124.532,394.248,127.825,397.997L131.119,401.746" id="my-svg-L_gatk_bam_compute_bam_features_0" class="edge-thickness-normal edge-pattern-solid edge-thickness-normal edge-pattern-solid flowchart-link" style=";" data-edge="true" data-et="edge" data-id="L_gatk_bam_compute_bam_features_0" data-points="W3sieCI6MTExLjg1OTM3NSwieSI6MzU0Ljc1MTY0MDMxOTgyNDJ9LHsieCI6MTExLjM1OTM3NSwieSI6Mzc5LjI1MTY0MDMxOTgyNDJ9LHsieCI6MTMzLjc1ODUxNDc0NzE5MTAxLCJ5Ijo0MDQuNzUxNjQwMzE5ODI0Mn1d" data-look="classic" marker-end="url(#my-svg_flowchart-v2-pointEnd)"/><path d="M263.539,152.573L249.049,160.686C234.56,168.799,205.581,185.025,191.091,200.555C176.602,216.085,176.602,230.918,176.602,245.752C176.602,260.585,176.602,275.418,176.602,290.252C176.602,305.085,176.602,319.918,176.602,334.752C176.602,349.585,176.602,364.418,174.551,375.503C172.501,386.588,168.4,393.924,166.35,397.592L164.299,401.26" id="my-svg-L_genome_compute_bam_features_0" class="edge-thickness-normal edge-pattern-solid edge-thickness-normal edge-pattern-solid flowchart-link" style=";" data-edge="true" data-et="edge" data-id="L_genome_compute_bam_features_0" data-points="W3sieCI6MjYzLjUzOTA2MjUsInkiOjE1Mi41NzMwMzQ0ODc2NDc3Nn0seyJ4IjoxNzYuNjAxNTYyNSwieSI6MjAxLjI1MTY0MDMxOTgyNDIyfSx7IngiOjE3Ni42MDE1NjI1LCJ5IjoyNDUuNzUxNjQwMzE5ODI0MjJ9LHsieCI6MTc2LjYwMTU2MjUsInkiOjI5MC4yNTE2NDAzMTk4MjQyfSx7IngiOjE3Ni42MDE1NjI1LCJ5IjozMzQuNzUxNjQwMzE5ODI0Mn0seyJ4IjoxNzYuNjAxNTYyNSwieSI6Mzc5LjI1MTY0MDMxOTgyNDJ9LHsieCI6MTYyLjM0Nzc4NzkyMTM0ODMzLCJ5Ijo0MDQuNzUxNjQwMzE5ODI0Mn1d" data-look="classic" marker-end="url(#my-svg_flowchart-v2-pointEnd)"/><path d="M296.379,354.752L296.296,358.835C296.212,362.918,296.046,371.085,283.054,379.219C270.063,387.352,244.248,395.453,231.34,399.504L218.432,403.554" id="my-svg-L_vcf_bed_compute_bam_features_0" class="edge-thickness-normal edge-pattern-solid edge-thickness-normal edge-pattern-solid flowchart-link" style=";" data-edge="true" data-et="edge" data-id="L_vcf_bed_compute_bam_features_0" data-points="W3sieCI6Mjk2LjM3ODkwNjI1LCJ5IjozNTQuNzUxNjQwMzE5ODI0Mn0seyJ4IjoyOTUuODc4OTA2MjUsInkiOjM3OS4yNTE2NDAzMTk4MjQyfSx7IngiOjIxNC42MTUzODc5OTE1NzMwNCwieSI6NDA0Ljc1MTY0MDMxOTgyNDJ9XQ==" data-look="classic" marker-end="url(#my-svg_flowchart-v2-pointEnd)"/><path d="M150.84,443.752L150.757,447.835C150.673,451.918,150.507,460.085,150.498,470.382C150.49,480.678,150.641,493.105,150.716,499.318L150.791,505.532" id="my-svg-L_compute_bam_features_bam_feat_0" class="edge-thickness-normal edge-pattern-solid edge-thickness-normal edge-pattern-solid flowchart-link" style=";" data-edge="true" data-et="edge" data-id="L_compute_bam_features_bam_feat_0" data-points="W3sieCI6MTUwLjgzOTg0Mzc1LCJ5Ijo0NDMuNzUxNjQwMzE5ODI0Mn0seyJ4IjoxNTAuMzM5ODQzNzUsInkiOjQ2OC4yNTE2NDAzMTk4MjQyfSx7IngiOjE1MC44Mzk4NDM3NSwieSI6NTA5LjUzMTM5NDk1ODQ5NjF9XQ==" data-look="classic" marker-end="url(#my-svg_flowchart-v2-pointEnd)"/><path d="M150.84,548.531L150.757,555.245C150.673,561.958,150.507,575.385,204.607,588.328C258.708,601.271,367.076,613.732,421.26,619.962L475.444,626.192" id="my-svg-L_bam_feat_train_model_0" class="edge-thickness-normal edge-pattern-solid edge-thickness-normal edge-pattern-solid flowchart-link" style=";" data-edge="true" data-et="edge" data-id="L_bam_feat_train_model_0" data-points="W3sieCI6MTUwLjgzOTg0Mzc1LCJ5Ijo1NDguNTMxMzk0OTU4NDk2MX0seyJ4IjoxNTAuMzM5ODQzNzUsInkiOjU4OC44MTExNDk1OTcxNjh9LHsieCI6NDc5LjQxNzk2ODc1LCJ5Ijo2MjYuNjQ4Njc5MDIzMDE0OH1d" data-look="classic" marker-end="url(#my-svg_flowchart-v2-pointEnd)"/><path d="M521.008,548.531L520.924,555.245C520.841,561.958,520.674,575.385,522.388,585.75C524.101,596.115,527.694,603.418,529.491,607.07L531.288,610.722" id="my-svg-L_vcf_feat_train_model_0" class="edge-thickness-normal edge-pattern-solid edge-thickness-normal edge-pattern-solid flowchart-link" style=";" data-edge="true" data-et="edge" data-id="L_vcf_feat_train_model_0" data-points="W3sieCI6NTIxLjAwNzgxMjUsInkiOjU0OC41MzEzOTQ5NTg0OTYxfSx7IngiOjUyMC41MDc4MTI1LCJ5Ijo1ODguODExMTQ5NTk3MTY4fSx7IngiOjUzMy4wNTM1NDYzNDgzMTQ2LCJ5Ijo2MTQuMzExMTQ5NTk3MTY4fV0=" data-look="classic" marker-end="url(#my-svg_flowchart-v2-pointEnd)"/><path d="M684.422,563.811L684.422,567.978C684.422,572.144,684.422,580.478,671.8,588.691C659.178,596.904,633.934,604.997,621.312,609.044L608.69,613.09" id="my-svg-L_truth_vcf_train_model_0" class="edge-thickness-normal edge-pattern-solid edge-thickness-normal edge-pattern-solid flowchart-link" style=";" data-edge="true" data-et="edge" data-id="L_truth_vcf_train_model_0" data-points="W3sieCI6Njg0LjQyMTg3NSwieSI6NTYzLjgxMTE0OTU5NzE2OH0seyJ4Ijo2ODQuNDIxODc1LCJ5Ijo1ODguODExMTQ5NTk3MTY4fSx7IngiOjYwNC44ODEwNTY4ODIwMjI0LCJ5Ijo2MTQuMzExMTQ5NTk3MTY4fV0=" data-look="classic" marker-end="url(#my-svg_flowchart-v2-pointEnd)"/><path d="M492.08,653.311L481.234,657.394C470.388,661.478,448.696,669.644,437.92,677.311C427.144,684.978,427.285,692.145,427.355,695.728L427.425,699.312" id="my-svg-L_train_model_snv_model_0" class="edge-thickness-normal edge-pattern-solid edge-thickness-normal edge-pattern-solid flowchart-link" style=";" data-edge="true" data-et="edge" data-id="L_train_model_snv_model_0" data-points="W3sieCI6NDkyLjA3OTkyNDUwODQyNywieSI6NjUzLjMxMTE0OTU5NzE2OH0seyJ4Ijo0MjcuMDAzOTA2MjUsInkiOjY3Ny44MTExNDk1OTcxNjh9LHsieCI6NDI3LjUwMzkwNjI1LCJ5Ijo3MDMuMzExMTQ5NTk3MTY4fV0=" data-look="classic" marker-end="url(#my-svg_flowchart-v2-pointEnd)"/><path d="M568.967,653.311L574.55,657.394C580.133,661.478,591.299,669.644,596.952,677.311C602.605,684.978,602.746,692.145,602.816,695.728L602.886,699.312" id="my-svg-L_train_model_indel_model_0" class="edge-thickness-normal edge-pattern-solid edge-thickness-normal edge-pattern-solid flowchart-link" style=";" data-edge="true" data-et="edge" data-id="L_train_model_indel_model_0" data-points="W3sieCI6NTY4Ljk2NzMwMTYxNTE2ODYsInkiOjY1My4zMTExNDk1OTcxNjh9LHsieCI6NjAyLjQ2NDg0Mzc1LCJ5Ijo2NzcuODExMTQ5NTk3MTY4fSx7IngiOjYwMi45NjQ4NDM3NSwieSI6NzAzLjMxMTE0OTU5NzE2OH1d" data-look="classic" marker-end="url(#my-svg_flowchart-v2-pointEnd)"/></g><g class="edgeLabels"><g class="edgeLabel"><g class="label" data-id="L_gatk_gatk_bam_0" transform="translate(0, 0)"><foreignObject width="0" height="0"><div xmlns="http://www.w3.org/1999/xhtml" class="labelBkg" style="display: table-cell; white-space: nowrap; line-height: 1.5; max-width: 200px; text-align: center;"><span class="edgeLabel"></span></div></foreignObject></g></g><g class="edgeLabel"><g class="label" data-id="L_gatk_gatk_vcf_0" transform="translate(0, 0)"><foreignObject width="0" height="0"><div xmlns="http://www.w3.org/1999/xhtml" class="labelBkg" style="display: table-cell; white-space: nowrap; line-height: 1.5; max-width: 200px; text-align: center;"><span class="edgeLabel"></span></div></foreignObject></g></g><g class="edgeLabel"><g class="label" data-id="L_gatk_vcf_compute_vcf_features_0" transform="translate(0, 0)"><foreignObject width="0" height="0"><div xmlns="http://www.w3.org/1999/xhtml" class="labelBkg" style="display: table-cell; white-space: nowrap; line-height: 1.5; max-width: 200px; text-align: center;"><span class="edgeLabel"></span></div></foreignObject></g></g><g class="edgeLabel"><g class="label" data-id="L_genome_compute_vcf_features_0" transform="translate(0, 0)"><foreignObject width="0" height="0"><div xmlns="http://www.w3.org/1999/xhtml" class="labelBkg" style="display: table-cell; white-space: nowrap; line-height: 1.5; max-width: 200px; text-align: center;"><span class="edgeLabel"></span></div></foreignObject></g></g><g class="edgeLabel"><g class="label" data-id="L_hc_bed_compute_vcf_features_0" transform="translate(0, 0)"><foreignObject width="0" height="0"><div xmlns="http://www.w3.org/1999/xhtml" class="labelBkg" style="display: table-cell; white-space: nowrap; line-height: 1.5; max-width: 200px; text-align: center;"><span class="edgeLabel"></span></div></foreignObject></g></g><g class="edgeLabel"><g class="label" data-id="L_popaf_vcf_compute_vcf_features_0" transform="translate(0, 0)"><foreignObject width="0" height="0"><div xmlns="http://www.w3.org/1999/xhtml" class="labelBkg" style="display: table-cell; white-space: nowrap; line-height: 1.5; max-width: 200px; text-align: center;"><span class="edgeLabel"></span></div></foreignObject></g></g><g class="edgeLabel"><g class="label" data-id="L_compute_vcf_features_vcf_feat_0" transform="translate(0, 0)"><foreignObject width="0" height="0"><div xmlns="http://www.w3.org/1999/xhtml" class="labelBkg" style="display: table-cell; white-space: nowrap; line-height: 1.5; max-width: 200px; text-align: center;"><span class="edgeLabel"></span></div></foreignObject></g></g><g class="edgeLabel"><g class="label" data-id="L_compute_vcf_features_vcf_bed_0" transform="translate(0, 0)"><foreignObject width="0" height="0"><div xmlns="http://www.w3.org/1999/xhtml" class="labelBkg" style="display: table-cell; white-space: nowrap; line-height: 1.5; max-width: 200px; text-align: center;"><span class="edgeLabel"></span></div></foreignObject></g></g><g class="edgeLabel"><g class="label" data-id="L_gatk_bam_compute_bam_features_0" transform="translate(0, 0)"><foreignObject width="0" height="0"><div xmlns="http://www.w3.org/1999/xhtml" class="labelBkg" style="display: table-cell; white-space: nowrap; line-height: 1.5; max-width: 200px; text-align: center;"><span class="edgeLabel"></span></div></foreignObject></g></g><g class="edgeLabel"><g class="label" data-id="L_genome_compute_bam_features_0" transform="translate(0, 0)"><foreignObject width="0" height="0"><div xmlns="http://www.w3.org/1999/xhtml" class="labelBkg" style="display: table-cell; white-space: nowrap; line-height: 1.5; max-width: 200px; text-align: center;"><span class="edgeLabel"></span></div></foreignObject></g></g><g class="edgeLabel"><g class="label" data-id="L_vcf_bed_compute_bam_features_0" transform="translate(0, 0)"><foreignObject width="0" height="0"><div xmlns="http://www.w3.org/1999/xhtml" class="labelBkg" style="display: table-cell; white-space: nowrap; line-height: 1.5; max-width: 200px; text-align: center;"><span class="edgeLabel"></span></div></foreignObject></g></g><g class="edgeLabel"><g class="label" data-id="L_compute_bam_features_bam_feat_0" transform="translate(0, 0)"><foreignObject width="0" height="0"><div xmlns="http://www.w3.org/1999/xhtml" class="labelBkg" style="display: table-cell; white-space: nowrap; line-height: 1.5; max-width: 200px; text-align: center;"><span class="edgeLabel"></span></div></foreignObject></g></g><g class="edgeLabel"><g class="label" data-id="L_bam_feat_train_model_0" transform="translate(0, 0)"><foreignObject width="0" height="0"><div xmlns="http://www.w3.org/1999/xhtml" class="labelBkg" style="display: table-cell; white-space: nowrap; line-height: 1.5; max-width: 200px; text-align: center;"><span class="edgeLabel"></span></div></foreignObject></g></g><g class="edgeLabel"><g class="label" data-id="L_vcf_feat_train_model_0" transform="translate(0, 0)"><foreignObject width="0" height="0"><div xmlns="http://www.w3.org/1999/xhtml" class="labelBkg" style="display: table-cell; white-space: nowrap; line-height: 1.5; max-width: 200px; text-align: center;"><span class="edgeLabel"></span></div></foreignObject></g></g><g class="edgeLabel"><g class="label" data-id="L_truth_vcf_train_model_0" transform="translate(0, 0)"><foreignObject width="0" height="0"><div xmlns="http://www.w3.org/1999/xhtml" class="labelBkg" style="display: table-cell; white-space: nowrap; line-height: 1.5; max-width: 200px; text-align: center;"><span class="edgeLabel"></span></div></foreignObject></g></g><g class="edgeLabel"><g class="label" data-id="L_train_model_snv_model_0" transform="translate(0, 0)"><foreignObject width="0" height="0"><div xmlns="http://www.w3.org/1999/xhtml" class="labelBkg" style="display: table-cell; white-space: nowrap; line-height: 1.5; max-width: 200px; text-align: center;"><span class="edgeLabel"></span></div></foreignObject></g></g><g class="edgeLabel"><g class="label" data-id="L_train_model_indel_model_0" transform="translate(0, 0)"><foreignObject width="0" height="0"><div xmlns="http://www.w3.org/1999/xhtml" class="labelBkg" style="display: table-cell; white-space: nowrap; line-height: 1.5; max-width: 200px; text-align: center;"><span class="edgeLabel"></span></div></foreignObject></g></g></g><g class="nodes"><g class="node default" id="my-svg-flowchart-gatk_bam-0" data-look="classic" transform="translate(111.359375, 334.7516403198242)"><g class="basic label-container outer-path" transform="translate(4.875,0)"><path d="M-35.1171875 -19.5 C-32.037378461676994 -13.340381923353991, -28.95756942335399 -7.180763846707983, -25.3671875 0 C-28.624413314349432 6.5144516286988665, -31.881639128698865 13.028903257397733, -35.1171875 19.5 C-20.048283240207212 19.5, -4.9793789804144275 19.5, 25.3671875 19.5 C25.3671875 10.425918049010892, 25.3671875 1.351836098021785, 25.3671875 -19.5 C11.086191386554828 -19.5, -3.194804726890343 -19.5, -35.1171875 -19.5" stroke="none" stroke-width="0" fill="#e3f2fd" style=""/><path d="M-35.1171875 -19.5 C-31.259108149318127 -11.783841298636254, -27.401028798636254 -4.067682597272507, -25.3671875 0 M-35.1171875 -19.5 C-32.99665666098787 -15.258938321975737, -30.876125821975737 -11.017876643951473, -25.3671875 0 M-25.3671875 0 C-28.66674966826089 6.599124336521779, -31.96631183652178 13.198248673043558, -35.1171875 19.5 M-25.3671875 0 C-29.169605448749365 7.60483589749873, -32.97202339749873 15.20967179499746, -35.1171875 19.5 M-35.1171875 19.5 C-11.17522132269238 19.5, 12.76674485461524 19.5, 25.3671875 19.5 M-35.1171875 19.5 C-17.19029539394568 19.5, 0.7365967121086427 19.5, 25.3671875 19.5 M25.3671875 19.5 C25.3671875 8.68241414957687, 25.3671875 -2.1351717008462607, 25.3671875 -19.5 M25.3671875 19.5 C25.3671875 10.211805639781774, 25.3671875 0.9236112795635485, 25.3671875 -19.5 M25.3671875 -19.5 C2.823175352005407 -19.5, -19.720836795989186 -19.5, -35.1171875 -19.5 M25.3671875 -19.5 C1.6034697872725303 -19.5, -22.16024792545494 -19.5, -35.1171875 -19.5" stroke="#90caf9" stroke-width="1.3" fill="none" stroke-dasharray="0 0" style=""/></g><g class="label" style="" transform="translate(-12.9921875, -12)"><rect/><foreignObject width="35.734375" height="24"><div xmlns="http://www.w3.org/1999/xhtml" style="display: table-cell; white-space: nowrap; line-height: 1.5; max-width: 200px; text-align: center;"><span class="nodeLabel"><p>BAM</p></span></div></foreignObject></g></g><g class="node default" id="my-svg-flowchart-gatk_vcf-1" data-look="classic" transform="translate(185.5, 136.6258201599121)"><g class="basic label-container outer-path" transform="translate(4.875,0)"><path d="M-32.9140625 -19.5 C-29.40669965867428 -12.485274317348562, -25.899336817348562 -5.470548634697122, -23.1640625 0 C-25.651261642767228 4.974398285534458, -28.13846078553446 9.948796571068916, -32.9140625 19.5 C-13.319254573947486 19.5, 6.275553352105028 19.5, 23.1640625 19.5 C23.1640625 6.071146537233314, 23.1640625 -7.357706925533371, 23.1640625 -19.5 C4.175873886039696 -19.5, -14.812314727920608 -19.5, -32.9140625 -19.5" stroke="none" stroke-width="0" fill="#e3f2fd" style=""/><path d="M-32.9140625 -19.5 C-29.70119316443545 -13.074261328870893, -26.488323828870893 -6.648522657741788, -23.1640625 0 M-32.9140625 -19.5 C-30.389324138561328 -14.45052327712266, -27.86458577712266 -9.401046554245319, -23.1640625 0 M-23.1640625 0 C-25.805790190918863 5.283455381837724, -28.447517881837726 10.566910763675448, -32.9140625 19.5 M-23.1640625 0 C-26.905581651232684 7.483038302465364, -30.647100802465364 14.966076604930729, -32.9140625 19.5 M-32.9140625 19.5 C-20.94598216559757 19.5, -8.977901831195144 19.5, 23.1640625 19.5 M-32.9140625 19.5 C-13.320248496075216 19.5, 6.273565507849568 19.5, 23.1640625 19.5 M23.1640625 19.5 C23.1640625 4.278034093763603, 23.1640625 -10.943931812472794, 23.1640625 -19.5 M23.1640625 19.5 C23.1640625 8.894102835847267, 23.1640625 -1.7117943283054657, 23.1640625 -19.5 M23.1640625 -19.5 C8.003704430219521 -19.5, -7.1566536395609575 -19.5, -32.9140625 -19.5 M23.1640625 -19.5 C7.141396053379591 -19.5, -8.881270393240818 -19.5, -32.9140625 -19.5" stroke="#90caf9" stroke-width="1.3" fill="none" stroke-dasharray="0 0" style=""/></g><g class="label" style="" transform="translate(-10.7890625, -12)"><rect/><foreignObject width="31.328125" height="24"><div xmlns="http://www.w3.org/1999/xhtml" style="display: table-cell; white-space: nowrap; line-height: 1.5; max-width: 200px; text-align: center;"><span class="nodeLabel"><p>VCF</p></span></div></foreignObject></g></g><g class="node default" id="my-svg-flowchart-genome-2" data-look="classic" transform="translate(335.9375, 136.6258201599121)"><path d="M0,13.417212022933919 a72.3984375,13.417212022933919 0,0,0 144.796875,0 a72.3984375,13.417212022933919 0,0,0 -144.796875,0 l0,52.41721202293392 a72.3984375,13.417212022933919 0,0,0 144.796875,0 l0,-52.41721202293392" class="basic label-container outer-path" style="" transform="translate(-72.3984375, -39.62581803440088)"/><g class="label" style="" transform="translate(-64.8984375, -2)"><rect/><foreignObject width="129.796875" height="24"><div xmlns="http://www.w3.org/1999/xhtml" style="display: table-cell; white-space: nowrap; line-height: 1.5; max-width: 200px; text-align: center;"><span class="nodeLabel"><p>reference FASTA</p></span></div></foreignObject></g></g><g class="node default" id="my-svg-flowchart-popaf_vcf-3" data-look="classic" transform="translate(661.6875, 136.6258201599121)"><path d="M0,11.259017519752662 a51.2109375,11.259017519752662 0,0,0 102.421875,0 a51.2109375,11.259017519752662 0,0,0 -102.421875,0 l0,50.25901751975266 a51.2109375,11.259017519752662 0,0,0 102.421875,0 l0,-50.25901751975266" class="basic label-container outer-path" style="" transform="translate(-51.2109375, -36.38852627962899)"/><g class="label" style="" transform="translate(-43.7109375, -2)"><rect/><foreignObject width="87.421875" height="24"><div xmlns="http://www.w3.org/1999/xhtml" style="display: table-cell; white-space: nowrap; line-height: 1.5; max-width: 200px; text-align: center;"><span class="nodeLabel"><p>POPAF VCF</p></span></div></foreignObject></g></g><g class="node default" id="my-svg-flowchart-hc_bed-4" data-look="classic" transform="translate(509.40625, 136.6258201599121)"><path d="M0,11.242003164339271 a51.0703125,11.242003164339271 0,0,0 102.140625,0 a51.0703125,11.242003164339271 0,0,0 -102.140625,0 l0,50.24200316433927 a51.0703125,11.242003164339271 0,0,0 102.140625,0 l0,-50.24200316433927" class="basic label-container outer-path" style="" transform="translate(-51.0703125, -36.363004746508906)"/><g class="label" style="" transform="translate(-43.5703125, -2)"><rect/><foreignObject width="87.140625" height="24"><div xmlns="http://www.w3.org/1999/xhtml" style="display: table-cell; white-space: nowrap; line-height: 1.5; max-width: 200px; text-align: center;"><span class="nodeLabel"><p>target BED</p></span></div></foreignObject></g></g><g class="node default" id="my-svg-flowchart-truth_vcf-5" data-look="classic" transform="translate(684.421875, 528.5313949584961)"><path d="M0,10.519837822183607 a45.40625,10.519837822183607 0,0,0 90.8125,0 a45.40625,10.519837822183607 0,0,0 -90.8125,0 l0,49.519837822183604 a45.40625,10.519837822183607 0,0,0 90.8125,0 l0,-49.519837822183604" class="basic label-container outer-path" style="" transform="translate(-45.40625, -35.279756733275406)"/><g class="label" style="" transform="translate(-37.90625, -2)"><rect/><foreignObject width="75.8125" height="24"><div xmlns="http://www.w3.org/1999/xhtml" style="display: table-cell; white-space: nowrap; line-height: 1.5; max-width: 200px; text-align: center;"><span class="nodeLabel"><p>truth VCF</p></span></div></foreignObject></g></g><g class="node default" id="my-svg-flowchart-gatk-6" data-look="classic" transform="translate(111.359375, 27.5)"><polygon points="0,0 190.71875,0 190.71875,-39 0,-39 0,0 -8,0 198.71875,0 198.71875,-39 -8,-39 -8,0" class="label-container" transform="translate(-95.359375,19.5)"/><g class="label" style="" transform="translate(-87.859375, -12)"><rect/><foreignObject width="175.71875" height="24"><div xmlns="http://www.w3.org/1999/xhtml" style="display: table-cell; white-space: nowrap; line-height: 1.5; max-width: 200px; text-align: center;"><span class="nodeLabel"><p>GATK HaplotypeCaller</p></span></div></foreignObject></g></g><g class="node default" id="my-svg-flowchart-compute_bam_features-7" data-look="classic" transform="translate(150.33984375, 423.7516403198242)"><polygon points="0,0 203.234375,0 203.234375,-39 0,-39 0,0 -8,0 211.234375,0 211.234375,-39 -8,-39 -8,0" class="label-container" transform="translate(-101.6171875,19.5)"/><g class="label" style="" transform="translate(-94.1171875, -12)"><rect/><foreignObject width="188.234375" height="24"><div xmlns="http://www.w3.org/1999/xhtml" style="display: table-cell; white-space: nowrap; line-height: 1.5; max-width: 200px; text-align: center;"><span class="nodeLabel"><p>compute_bam_features</p></span></div></foreignObject></g></g><g class="node default" id="my-svg-flowchart-compute_vcf_features-8" data-look="classic" transform="translate(492.0703125, 245.75164031982422)"><polygon points="0,0 191.59375,0 191.59375,-39 0,-39 0,0 -8,0 199.59375,0 199.59375,-39 -8,-39 -8,0" class="label-container" transform="translate(-95.796875,19.5)"/><g class="label" style="" transform="translate(-88.296875, -12)"><rect/><foreignObject width="176.59375" height="24"><div xmlns="http://www.w3.org/1999/xhtml" style="display: table-cell; white-space: nowrap; line-height: 1.5; max-width: 200px; text-align: center;"><span class="nodeLabel"><p>compute_vcf_features</p></span></div></foreignObject></g></g><g class="node default" id="my-svg-flowchart-train_model-9" data-look="classic" transform="translate(541.94921875, 633.311149597168)"><polygon points="0,0 110.0625,0 110.0625,-39 0,-39 0,0 -8,0 118.0625,0 118.0625,-39 -8,-39 -8,0" class="label-container" transform="translate(-55.03125,19.5)"/><g class="label" style="" transform="translate(-47.53125, -12)"><rect/><foreignObject width="95.0625" height="24"><div xmlns="http://www.w3.org/1999/xhtml" style="display: table-cell; white-space: nowrap; line-height: 1.5; max-width: 200px; text-align: center;"><span class="nodeLabel"><p>train_model</p></span></div></foreignObject></g></g><g class="node default" id="my-svg-flowchart-vcf_bed-10" data-look="classic" transform="translate(295.87890625, 334.7516403198242)"><polygon points="9.75,0 119.765625,0 129.515625,-19.5 119.765625,-39 9.75,-39 0,-19.5" class="label-container" transform="translate(-64.7578125,19.5)"/><g class="label" style="" transform="translate(-47.5078125, -12)"><rect/><foreignObject width="95.015625" height="24"><div xmlns="http://www.w3.org/1999/xhtml" style="display: table-cell; white-space: nowrap; line-height: 1.5; max-width: 200px; text-align: center;"><span class="nodeLabel"><p>variant BED</p></span></div></foreignObject></g></g><g class="node default" id="my-svg-flowchart-bam_feat-11" data-look="classic" transform="translate(150.33984375, 528.5313949584961)"><polygon points="9.75,0 131.671875,0 141.421875,-19.5 131.671875,-39 9.75,-39 0,-19.5" class="label-container" transform="translate(-70.7109375,19.5)"/><g class="label" style="" transform="translate(-53.4609375, -12)"><rect/><foreignObject width="106.921875" height="24"><div xmlns="http://www.w3.org/1999/xhtml" style="display: table-cell; white-space: nowrap; line-height: 1.5; max-width: 200px; text-align: center;"><span class="nodeLabel"><p>BAM features</p></span></div></foreignObject></g></g><g class="node default" id="my-svg-flowchart-vcf_feat-12" data-look="classic" transform="translate(520.5078125, 528.5313949584961)"><polygon points="9.75,0 127.265625,0 137.015625,-19.5 127.265625,-39 9.75,-39 0,-19.5" class="label-container" transform="translate(-68.5078125,19.5)"/><g class="label" style="" transform="translate(-51.2578125, -12)"><rect/><foreignObject width="102.515625" height="24"><div xmlns="http://www.w3.org/1999/xhtml" style="display: table-cell; white-space: nowrap; line-height: 1.5; max-width: 200px; text-align: center;"><span class="nodeLabel"><p>VCF features</p></span></div></foreignObject></g></g><g class="node default" id="my-svg-flowchart-snv_model-13" data-look="classic" transform="translate(427.00390625, 722.311149597168)"><polygon points="9.75,0 112.734375,0 122.484375,-19.5 112.734375,-39 9.75,-39 0,-19.5" class="label-container" transform="translate(-61.2421875,19.5)"/><g class="label" style="" transform="translate(-43.9921875, -12)"><rect/><foreignObject width="87.984375" height="24"><div xmlns="http://www.w3.org/1999/xhtml" style="display: table-cell; white-space: nowrap; line-height: 1.5; max-width: 200px; text-align: center;"><span class="nodeLabel"><p>SNV model</p></span></div></foreignObject></g></g><g class="node default" id="my-svg-flowchart-indel_model-14" data-look="classic" transform="translate(602.46484375, 722.311149597168)"><polygon points="9.75,0 118.6875,0 128.4375,-19.5 118.6875,-39 9.75,-39 0,-19.5" class="label-container" transform="translate(-64.21875,19.5)"/><g class="label" style="" transform="translate(-46.96875, -12)"><rect/><foreignObject width="93.9375" height="24"><div xmlns="http://www.w3.org/1999/xhtml" style="display: table-cell; white-space: nowrap; line-height: 1.5; max-width: 200px; text-align: center;"><span class="nodeLabel"><p>indel model</p></span></div></foreignObject></g></g></g></g></g><defs><filter id="my-svg-drop-shadow" height="130%" width="130%"><feDropShadow dx="4" dy="4" stdDeviation="0" flood-opacity="0.06" flood-color="#000000"/></filter></defs><defs><filter id="my-svg-drop-shadow-small" height="150%" width="150%"><feDropShadow dx="2" dy="2" stdDeviation="0" flood-opacity="0.06" flood-color="#000000"/></filter></defs><linearGradient id="my-svg-gradient" gradientUnits="objectBoundingBox" x1="0%" y1="0%" x2="100%" y2="0%"><stop offset="0%" stop-color="#90caf9" stop-opacity="1"/><stop offset="100%" stop-color="hsl(292.5, 4.4444444444%, 82.9411764706%)" stop-opacity="1"/></linearGradient></svg>
