<svg id="my-svg" width="700" height="500" xmlns="http://www.w3.org/2000/svg" xmlns:xlink="http://www.w3.org/1999/xlink" style="max-width: 700px; background-color: transparent;" viewBox="0 0 700 500" role="graphics-document document" aria-roledescription="xychart"><style>#my-svg{font-family:"trebuchet ms",verdana,arial,sans-serif;font-size:16px;fill:#1a1a1a;}@keyframes edge-animation-frame{from{stroke-dashoffset:0;}}@keyframes dash{to{stroke-dashoffset:0;}}#my-svg .edge-animation-slow{stroke-dasharray:9,5!important;stroke-dashoffset:900;animation:dash 50s linear infinite;stroke-linecap:round;}#my-svg .edge-animation-fast{stroke-dasharray:9,5!important;stroke-dashoffset:900;animation:dash 20s linear infinite;stroke-linecap:round;}#my-svg .error-icon{fill:#e8f5e9;}#my-svg .error-text{fill:#170a16;stroke:#170a16;}#my-svg .edge-thickness-normal{stroke-width:1px;}#my-svg .edge-thickness-thick{stroke-width:3.5px;}#my-svg .edge-pattern-solid{stroke-dasharray:0;}#my-svg .edge-thickness-invisible{stroke-width:0;fill:none;}#my-svg .edge-pattern-dashed{stroke-dasharray:3;}#my-svg .edge-pattern-dotted{stroke-dasharray:2;}#my-svg .marker{fill:#546e7a;stroke:#546e7a;}#my-svg .marker.cross{stroke:#546e7a;}#my-svg svg{font-family:"trebuchet ms",verdana,arial,sans-serif;font-size:16px;}#my-svg p{margin:0;}#my-svg .node .neo-node{stroke:#90caf9;}#my-svg [data-look="neo"].node rect,#my-svg [data-look="neo"].cluster rect,#my-svg [data-look="neo"].node polygon{stroke:url(#my-svg-gradient);filter:drop-shadow( 1px 2px 2px rgba(185,185,185,1));}#my-svg [data-look="neo"].node path{stroke:url(#my-svg-gradient);stroke-width:1px;}#my-svg [data-look="neo"].node .outer-path{filter:drop-shadow( 1px 2px 2px rgba(185,185,185,1));}#my-svg [data-look="neo"].node .neo-line path{stroke:#90caf9;filter:none;}#my-svg [data-look="neo"].node circle{stroke:url(#my-svg-gradient);filter:drop-shadow( 1px 2px 2px rgba(185,185,185,1));}#my-svg [data-look="neo"].node circle .state-start{fill:#000000;}#my-svg [data-look="neo"].icon-shape .icon{fill:url(#my-svg-gradient);filter:drop-shadow( 1px 2px 2px rgba(185,185,185,1));}#my-svg [data-look="neo"].icon-shape .icon-neo path{stroke:url(#my-svg-gradient);filter:drop-shadow( 1px 2px 2px rgba(185,185,185,1));}#my-svg :root{--mermaid-font-family:"trebuchet ms",verdana,arial,sans-serif;}</style><g/><g class="main"><rect width="700" height="500" class="background" fill="#f4f4f4"/><g class="chart-title"><text x="0" y="0" fill="#1a1a1a" font-size="20" dominant-baseline="middle" text-anchor="middle" transform="translate(350, 22) rotate(0)">ROC curve for PRED_ML</text></g><g class="plot"><g class="line-plot-0"><path d="M31,469L38.042,220.876L45.084,167.873L52.126,147.512L59.168,136.471L66.211,129.932L73.253,125.755L80.295,122.414L87.337,119.608L94.379,117.194L101.421,115.379L108.463,113.748L115.505,112.443L122.547,111.164L129.589,109.793L136.632,108.527L143.674,107.209L150.716,105.917L157.758,104.716L164.8,103.542L171.842,102.432L178.884,101.349L185.926,100.318L192.968,99.3L200.011,98.321L207.053,97.198L214.095,96.22L221.137,95.267L228.179,94.562L235.221,93.648L242.263,92.813L249.305,91.952L256.347,91.182L263.389,90.268L270.432,89.459L277.474,88.767L284.516,87.984L291.558,87.201L298.6,86.64L305.642,86.039L312.684,85.348L319.726,84.604L326.768,84.003L333.811,83.246L340.853,82.698L347.895,81.993L354.937,81.458L361.979,81.014L369.021,80.375L376.063,79.853L383.105,79.265L390.147,78.717L397.189,78.052L404.232,77.451L411.274,76.877L418.316,76.433L425.358,75.742L432.4,75.154L439.442,74.593L446.484,73.914L453.526,73.301L460.568,72.674L467.611,72.009L474.653,71.539L481.695,71.121L488.737,70.625L495.779,70.155L502.821,69.581L509.863,69.098L516.905,68.707L523.947,68.093L530.989,67.597L538.032,67.141L545.074,66.605L552.116,66.018L559.158,65.392L566.2,64.87L573.242,64.256L580.284,63.786L587.326,62.938L594.368,62.311L601.411,61.724L608.453,61.215L615.495,60.484L622.537,59.91L629.579,59.205L636.621,58.292L643.663,57.469L650.705,56.503L657.747,55.577L664.789,54.598L671.832,53.267L678.874,51.727L685.916,49.912L692.958,47.511L700,44" fill="none" stroke="#1565C0" stroke-width="2"/></g></g><g class="bottom-axis"><g class="axis-line"><path d="M 31.000001907348633,469.99999809265137 L 700,469.99999809265137" fill="none" stroke="#1a1a1a" stroke-width="2"/></g><g class="title"><text x="0" y="0" fill="#1a1a1a" font-size="16" dominant-baseline="text-before-edge" text-anchor="middle" transform="translate(365.5000009536743, 475.99999809265137) rotate(0)">False Positives</text></g></g><g class="left-axis"><g class="axisl-line"><path d="M 30.000001907348633,44 L 30.000001907348633,468.99999809265137" fill="none" stroke="#1a1a1a" stroke-width="2"/></g><g class="title"><text x="0" y="0" fill="#1a1a1a" font-size="16" dominant-baseline="text-before-edge" text-anchor="middle" transform="translate(5, 256.4999990463257) rotate(270)">True Positives</text></g></g></g><g class="mermaid-tmp-group"/></svg>
